<svg version="1.1" id="Layer_1" xmlns="http://www.w3.org/2000/svg" xmlns:xlink="http://www.w3.org/1999/xlink" x="0px" y="0px" width="58px" height="58px" viewBox="0 0 512 512" enable-background="new 0 0 512 512" xml:space="preserve"><path id="color_x5F_1" fill="#0087C7" d="M442.082,405.867c0,0-51.168,27.286-175.494,1.517    c-49.875-10.343-115.979-29.565-187.997-70.536c0,0,224.011,46.277,371.832-286.514c0,0,33.787,141.479-74.236,258.597    c0,0,74.927-25.234,135.813-67.38c0,0-54.746,117.914-150.557,141.076C361.443,382.627,387.765,393.155,442.082,405.867z"></path><path id="color_x5F_2_1_" fill="#0057A8" d="M0.729,296.758h141.919l18.324,36.312c-49.025,10.408-81.706,3.778-81.706,3.778    L0.729,296.758z"></path></svg>